<svg width="22" height="21" viewBox="0 0 22 21" fill="none" xmlns="http://www.w3.org/2000/svg">
<path d="M7.08398 0.219543C7.37682 -0.0732704 7.85163 -0.0731716 8.14453 0.219543L18.9785 11.0535C21.0405 13.1156 21.0405 16.4583 18.9785 18.5203C16.9165 20.5824 13.5738 20.5824 11.5117 18.5203L7.2793 14.2879C7.25037 14.2664 7.22158 14.2438 7.19531 14.2176L1.1123 8.13458C1.05307 8.07535 0.996887 8.01402 0.942383 7.95197L0.677734 7.68732C0.562124 7.57171 0.493093 7.42709 0.46875 7.27716C-0.324968 5.83375 -0.110982 3.98385 1.1123 2.76056C2.59614 1.2769 5.00256 1.27679 6.48633 2.76056L12.5693 8.84357C12.5737 8.84798 12.5778 8.85275 12.582 8.85724L16.835 13.1111C17.7271 14.0033 17.7278 15.4494 16.8359 16.3416C15.9437 17.2338 14.4967 17.2338 13.6045 16.3416L4.31836 7.05646C4.02568 6.7637 4.02592 6.28882 4.31836 5.99591C4.61125 5.70302 5.08699 5.70302 5.37988 5.99591L14.665 15.2811C14.9715 15.5875 15.4689 15.5875 15.7754 15.2811C16.0815 14.9746 16.0807 14.478 15.7744 14.1717L6.48926 4.88556C6.4855 4.8818 6.48218 4.87766 6.47852 4.87384L5.42578 3.82111C4.5278 2.92312 3.0709 2.92323 2.17285 3.82111C1.31858 4.67539 1.27877 6.0338 2.0498 6.93732L12.5723 17.4598C14.0486 18.936 16.4417 18.9361 17.918 17.4598C19.3942 15.9835 19.3942 13.5903 17.918 12.1141L7.08398 1.28009C6.79134 0.987264 6.79139 0.512399 7.08398 0.219543Z" fill="#D9D9D9"/>
</svg>
