<svg width="24" height="24" viewBox="0 0 24 24" fill="none" xmlns="http://www.w3.org/2000/svg">
<path d="M12 0C18.6274 0 24 5.37258 24 12C24 18.6274 18.6274 24 12 24C5.37258 24 0 18.6274 0 12C0 5.37258 5.37258 0 12 0ZM12 1.5C6.20101 1.5 1.5 6.20101 1.5 12C1.5 17.799 6.20101 22.5 12 22.5C17.799 22.5 22.5 17.799 22.5 12C22.5 6.20101 17.799 1.5 12 1.5Z" fill="white"/>
<circle cx="7" cy="10" r="2" fill="white"/>
<circle cx="17" cy="10" r="2" fill="white"/>
<path d="M17 16C16 17.5 14.7614 19 12 19C9.23858 19 8 17.5 7 16" stroke="white" stroke-width="1.5" stroke-linecap="round"/>
</svg>
